<?xml version="1.0" standalone="no"?>
<!DOCTYPE svg PUBLIC "-//W3C//DTD SVG 20010904//EN"
 "http://www.w3.org/TR/2001/REC-SVG-20010904/DTD/svg10.dtd">
<svg version="1.0" xmlns="http://www.w3.org/2000/svg"
 width="1024.000000pt" height="1024.000000pt" viewBox="0 0 1024.000000 1024.000000"
 preserveAspectRatio="xMidYMid meet">

<g transform="translate(0.000000,1024.000000) scale(0.100000,-0.100000)"
fill="#000000" stroke="none">
<path d="M3861 8695 c-103 -23 -155 -43 -243 -96 -179 -108 -298 -271 -348
-482 -19 -78 -20 -120 -20 -888 0 -443 -3 -827 -6 -852 l-7 -47 -33 29 c-48
43 -187 116 -279 147 -105 36 -299 45 -418 20 -281 -58 -509 -238 -631 -497
-60 -128 -80 -224 -80 -379 1 -182 39 -316 134 -467 22 -34 40 -67 40 -72 0
-5 -12 -12 -27 -16 -42 -10 -82 -43 -106 -88 -22 -41 -22 -48 -22 -417 0 -419
1 -431 67 -570 68 -143 206 -264 368 -321 64 -23 74 -23 530 -27 l465 -3 5
-897 5 -897 28 -78 c15 -43 39 -101 54 -130 27 -55 126 -189 162 -221 11 -11
21 -23 21 -28 0 -4 -236 -8 -524 -8 l-525 0 -26 -23 c-39 -33 -45 -94 -12
-133 l25 -29 2779 -3 c2074 -2 2785 1 2806 9 63 26 77 101 28 150 l-29 29
-546 0 c-300 0 -546 4 -546 8 0 4 21 28 46 52 58 57 128 163 165 251 61 143
60 118 62 1077 l2 877 460 0 c421 0 465 2 515 18 193 65 340 202 413 387 43
110 48 169 45 540 l-3 345 -25 45 c-19 34 -37 51 -77 70 -29 14 -52 28 -53 31
0 3 22 45 49 92 155 268 170 577 42 841 -118 243 -356 428 -620 483 -93 19
-308 13 -396 -11 -103 -28 -276 -118 -328 -170 -13 -13 -15 -9 -21 32 -3 26
-6 414 -6 862 1 780 0 818 -19 891 -66 258 -272 471 -531 551 l-75 23 -1335 2
c-1111 1 -1346 -1 -1399 -12z m2785 -206 c180 -66 312 -208 358 -386 12 -45
16 -111 16 -257 l0 -196 -1785 0 -1785 0 0 173 c1 294 34 403 164 533 79 79
164 126 269 149 51 11 299 13 1377 12 l1315 -2 71 -26z m358 -1035 c14 -5 16
-78 16 -660 l0 -654 -240 0 -240 0 -29 33 c-16 17 -54 61 -85 97 -112 131
-293 268 -466 355 -303 152 -706 202 -1054 130 -385 -80 -652 -243 -938 -573
l-37 -42 -238 2 -238 3 -3 658 -2 657 1769 0 c974 0 1777 -3 1785 -6z m-1884
-2059 l0 -1186 -52 7 c-93 11 -184 33 -295 69 -121 40 -329 145 -325 164 1 7
-2 10 -8 6 -13 -8 -116 71 -196 150 -157 155 -261 338 -309 542 -36 150 -28
403 16 564 73 266 296 540 564 691 173 98 414 174 563 177 l42 1 0 -1185z
m404 1165 c362 -70 660 -262 860 -554 135 -198 181 -358 180 -626 0 -199 -19
-289 -95 -449 -67 -142 -134 -231 -270 -359 -199 -186 -493 -318 -795 -357
l-51 -6 -7 32 c-3 17 -6 551 -6 1185 l0 1154 39 0 c22 0 87 -9 145 -20z
m-2643 -243 c147 -50 281 -152 376 -284 l45 -63 96 0 c54 -1 172 0 265 0 115
1 167 -3 167 -10 0 -6 -14 -43 -31 -83 -79 -183 -112 -405 -91 -620 12 -120
21 -160 60 -284 l20 -63 -169 0 -169 0 0 55 c0 109 -33 137 -165 141 -49 2
-101 3 -115 4 -18 0 -31 10 -44 33 -63 109 -176 200 -288 232 -86 25 -215 23
-291 -4 -115 -40 -178 -98 -285 -260 -6 -11 -108 99 -147 159 -80 124 -118
254 -118 405 1 264 142 490 379 605 110 54 185 70 319 66 87 -2 126 -8 186
-29z m5064 18 c207 -43 418 -225 492 -425 31 -82 46 -202 39 -297 -13 -162
-56 -272 -153 -393 -88 -111 -83 -109 -128 -44 -147 213 -387 277 -613 164
-99 -50 -150 -94 -201 -175 l-41 -65 -126 0 c-125 0 -126 0 -155 -29 -22 -23
-29 -39 -31 -73 0 -24 -2 -47 -3 -53 -2 -5 -3 -16 -4 -22 -1 -10 -41 -13 -167
-13 -154 0 -166 1 -159 18 15 39 55 184 66 243 7 35 13 134 13 219 0 206 -22
315 -100 493 -19 43 -34 80 -34 82 0 3 119 5 264 5 l264 0 46 64 c104 146 280
267 436 300 86 19 208 19 295 1z m-5127 -1154 c50 -26 117 -97 137 -144 9 -21
19 -67 22 -103 l6 -64 -87 0 -86 0 0 28 c0 42 -34 88 -75 102 -75 25 -132 -8
-157 -91 l-11 -39 -79 0 -78 0 0 48 c0 173 140 301 313 287 31 -3 74 -13 95
-24z m5097 -1 c56 -27 118 -89 144 -143 11 -23 21 -69 23 -102 l3 -60 -80 -3
c-81 -3 -81 -3 -83 24 -3 39 -32 82 -66 96 -75 31 -138 -1 -159 -79 l-11 -43
-78 0 -78 0 0 58 c0 105 31 171 105 228 73 55 194 66 280 24z m-5695 -331 c0
-55 5 -109 10 -120 10 -18 26 -19 453 -19 362 0 447 3 462 14 17 12 19 25 17
115 l-3 101 46 0 45 0 -2 -532 -3 -533 -440 -3 c-375 -2 -447 0 -493 14 -151
43 -267 187 -292 359 -5 39 -10 210 -10 382 l0 312 33 4 c17 2 65 5 105 5 l72
2 0 -101z m5122 96 c10 -4 12 -28 10 -99 -5 -148 -46 -136 461 -136 373 0 425
2 446 16 22 16 23 21 19 115 l-3 99 93 0 92 0 0 -348 c0 -378 -4 -417 -57
-514 -33 -60 -114 -138 -179 -171 -87 -43 -130 -47 -579 -47 l-425 0 0 538 c0
296 3 542 7 545 7 8 95 9 115 2z m-3397 -302 c138 -186 370 -376 578 -473 520
-244 1156 -199 1632 116 154 101 302 245 396 384 l34 49 218 1 217 0 0 -1030
0 -1030 -1782 2 -1783 3 -3 1028 -2 1027 219 0 219 0 57 -77z m3073 -2466 c-3
-284 -4 -305 -25 -361 -34 -88 -81 -163 -145 -225 -101 -100 -214 -154 -362
-172 -50 -6 -546 -9 -1316 -7 -1087 3 -1241 6 -1285 19 -160 50 -304 178 -372
329 -54 119 -56 130 -60 418 -3 150 -2 279 1 287 5 13 223 15 1786 15 l1781 0
-3 -303z"/>
<path d="M4670 8113 c-48 -45 -43 -121 10 -148 25 -13 110 -15 564 -15 l534 0
31 26 c44 37 44 94 0 135 l-31 29 -539 0 -539 0 -30 -27z"/>
<path d="M4709 5929 c-6 -12 -14 -48 -17 -81 -5 -59 -5 -59 -53 -84 -57 -28
-94 -80 -110 -153 -20 -96 22 -179 129 -257 106 -78 161 -132 168 -169 12 -68
-43 -135 -111 -135 -15 0 -51 7 -81 16 -51 14 -57 14 -80 -1 -64 -42 -52 -103
28 -140 29 -14 65 -25 79 -25 25 0 26 -3 31 -65 8 -90 41 -124 101 -102 36 12
47 41 47 123 0 38 4 64 10 64 6 0 33 20 59 45 62 58 93 127 92 205 0 110 -43
174 -169 255 -48 32 -97 69 -109 84 -27 30 -30 77 -7 109 20 29 80 30 134 2
22 -11 50 -20 64 -20 54 0 86 78 52 126 -13 18 -57 42 -108 58 -15 4 -18 17
-18 66 0 75 -20 100 -80 100 -30 0 -42 -5 -51 -21z"/>
<path d="M5650 5930 c-18 -18 -26 -65 -21 -121 1 -10 -18 -29 -48 -48 -62 -37
-97 -89 -112 -162 -21 -107 24 -191 155 -288 101 -74 146 -123 146 -157 0 -33
-25 -81 -49 -94 -28 -15 -92 -12 -142 5 -34 12 -49 13 -70 4 -31 -12 -54 -58
-44 -88 9 -29 60 -63 114 -77 l46 -11 5 -65 c6 -78 20 -98 70 -98 56 0 75 27
73 105 l-2 62 49 32 c58 38 105 105 119 171 25 115 -26 198 -191 314 -80 57
-108 92 -108 139 0 79 68 109 150 67 53 -27 104 -26 124 2 22 31 20 84 -3 107
-15 15 -73 41 -128 57 -9 2 -13 25 -13 68 0 56 -3 67 -22 80 -31 22 -74 20
-98 -4z"/>
<path d="M2439 5789 c-41 -44 -41 -108 0 -150 24 -24 38 -29 76 -29 40 0 52 5
76 31 41 44 41 108 0 150 -24 24 -38 29 -76 29 -40 0 -52 -5 -76 -31z"/>
<path d="M2879 5791 c-53 -53 -33 -158 34 -180 112 -37 196 105 110 185 -39
36 -105 34 -144 -5z"/>
<path d="M7469 5789 c-41 -44 -41 -108 0 -150 24 -24 38 -29 76 -29 38 0 52 5
76 29 24 24 29 38 29 76 0 38 -5 52 -29 76 -24 24 -38 29 -76 29 -40 0 -52 -5
-76 -31z"/>
<path d="M7899 5791 c-52 -53 -35 -141 34 -174 72 -36 147 15 147 100 0 36 -6
50 -29 74 -24 24 -38 29 -76 29 -38 0 -52 -5 -76 -29z"/>
<path d="M5164 2345 c-147 -32 -248 -127 -289 -269 -37 -128 -1 -262 97 -359
189 -188 497 -132 611 111 28 59 31 77 31 152 -1 62 -7 100 -22 140 -44 113
-160 206 -286 229 -70 13 -64 13 -142 -4z m163 -192 c49 -26 89 -77 104 -134
16 -59 -2 -128 -45 -177 -123 -140 -346 -57 -346 129 0 155 153 252 287 182z"/>
<path d="M1882 1400 c-12 -5 -30 -25 -39 -44 -47 -99 70 -184 148 -107 75 75
-9 191 -109 151z"/>
<path d="M8518 1395 c-31 -17 -52 -71 -42 -109 9 -36 50 -66 91 -66 49 0 93
45 93 95 0 27 -8 44 -29 66 -33 32 -70 37 -113 14z"/>
<path d="M2162 1348 c-19 -19 -14 -66 8 -88 25 -25 41 -25 74 1 30 24 34 59 8
82 -22 20 -73 22 -90 5z"/>
<path d="M8250 1341 c-25 -47 3 -91 58 -91 32 0 62 29 62 61 0 45 -98 70 -120
30z"/>
</g>
</svg>
